<?xml version="1.0" encoding="UTF-8"?><svg xmlns="http://www.w3.org/2000/svg" viewBox="0 0 449.59 245.35"><defs><style>.d{fill:#00beb7;}.e{fill:#f9fafb;}</style></defs><g id="a"/><g id="b"><g id="c"><g><g><g><path class="e" d="M345.84,202.25h-31.9v.2c0,5.7,2.4,10.9,10.3,10.9,6.3,0,15.2-.5,19.2-.9h.3c1.1,0,1.9,.5,1.9,1.6v7.6c0,1.6-.4,2.3-2.1,2.7-6.4,1.6-11.8,2.4-20.5,2.4-12.1,0-25.1-6.4-25.1-25.7v-7c0-16.1,9.4-26.3,25.3-26.3s24.7,11.2,24.7,26.3v5.8c0,1.5-.8,2.4-2.1,2.4Zm-13.7-10.4c0-7.4-3.4-11.1-9-11.1s-9.2,3.8-9.2,11.1v.4h18.2v-.4Z"/><path class="e" d="M388.34,181.15h-.8c-4.9,0-9.2,1.5-12.9,3.5v39.1c0,1.1-.9,2.1-2,2.1h-12.1c-1.1,0-2.1-1-2.1-2.1v-53.2c0-1.1,.9-2,2-2h11.9c1.1,0,2,.9,2,2v2c3.7-3.1,8.7-4.8,13.5-4.8,1.1,0,2,.9,2,2v9.5c0,.9-.6,1.9-1.5,1.9Z"/><path class="e" d="M422.44,226.75c-2,0-5.3-.3-8.2-.7v17.3c0,1.1-.9,2-2,2h-12.1c-1.1,0-2.1-.9-2.1-2v-70.1c0-1.6,.4-2.3,3.1-2.9,5.7-1.4,13.6-2.6,21.3-2.6,16.2,0,25.1,9.4,25.1,25.6v7.8c0,15.7-8.2,25.6-25.1,25.6Zm8.9-33.4c0-7.1-1.8-12.2-8.9-12.2-3.3,0-6.3,.2-8.2,.5v31.2c2.4,.3,5.8,.6,8.2,.6,7.1,0,8.9-5.3,8.9-12.3v-7.8Z"/></g><g><path class="d" d="M345.84,202.25h-31.9v.2c0,5.7,2.4,10.9,10.3,10.9,6.3,0,15.2-.5,19.2-.9h.3c1.1,0,1.9,.5,1.9,1.6v7.6c0,1.6-.4,2.3-2.1,2.7-6.4,1.6-11.8,2.4-20.5,2.4-12.1,0-25.1-6.4-25.1-25.7v-7c0-16.1,9.4-26.3,25.3-26.3s24.7,11.2,24.7,26.3v5.8c0,1.5-.8,2.4-2.1,2.4Zm-13.7-10.4c0-7.4-3.4-11.1-9-11.1s-9.2,3.8-9.2,11.1v.4h18.2v-.4Z"/><path class="d" d="M388.34,181.15h-.8c-4.9,0-9.2,1.5-12.9,3.5v39.1c0,1.1-.9,2.1-2,2.1h-12.1c-1.1,0-2.1-1-2.1-2.1v-53.2c0-1.1,.9-2,2-2h11.9c1.1,0,2,.9,2,2v2c3.7-3.1,8.7-4.8,13.5-4.8,1.1,0,2,.9,2,2v9.5c0,.9-.6,1.9-1.5,1.9Z"/><path class="d" d="M422.44,226.75c-2,0-5.3-.3-8.2-.7v17.3c0,1.1-.9,2-2,2h-12.1c-1.1,0-2.1-.9-2.1-2v-70.1c0-1.6,.4-2.3,3.1-2.9,5.7-1.4,13.6-2.6,21.3-2.6,16.2,0,25.1,9.4,25.1,25.6v7.8c0,15.7-8.2,25.6-25.1,25.6Zm8.9-33.4c0-7.1-1.8-12.2-8.9-12.2-3.3,0-6.3,.2-8.2,.5v31.2c2.4,.3,5.8,.6,8.2,.6,7.1,0,8.9-5.3,8.9-12.3v-7.8Z"/></g></g><g><path class="e" d="M48.8,155.2c-15.4,0-31.2-2.4-42.6-5.2-5.4-1.2-6.2-2.6-6.2-5.8V4C0,1.8,2,0,4.2,0H28.4c2.2,0,4,1.8,4,4V38.6c5.8-.8,12.4-1.4,16.4-1.4,33.8,0,50.2,19.8,50.2,51.2v15.6c0,32.4-17.8,51.2-50.2,51.2Zm17.8-66.8c0-14-3.6-24.4-17.8-24.4-4.8,0-11.6,.4-16.4,1v62.4c3.8,.6,9.8,1.2,16.4,1.2,14.2,0,17.8-10.4,17.8-24.6v-15.6Z"/><path class="e" d="M213.8,153.4h-22.4c-2.2,0-4-1.8-4-4v-4.8c-11,7.8-19.8,10.4-32.6,10.4-29,0-35.4-20.2-35.4-45.4V43c0-2.2,2-4.2,4.2-4.2h24.2c2.2,0,4,2,4,4.2V109.6c0,14,2.6,18.6,14.8,18.6,5.8,0,12-2.8,18.8-6.4V43c0-2.2,1.8-4.2,4-4.2h24.2c2.2,0,4.2,2,4.2,4.2v106.4c0,2.2-1.8,4-4,4Z"/><path class="e" d="M290.6,155.2c-15.4,0-31.2-2.4-42.6-5.2-5.4-1.2-6.2-2.6-6.2-5.8V4c0-2.2,2-4,4.2-4h24.2c2.2,0,4,1.8,4,4V38.6c5.8-.8,12.4-1.4,16.4-1.4,33.8,0,50.2,19.8,50.2,51.2v15.6c0,32.4-17.8,51.2-50.2,51.2Zm17.8-66.8c0-14-3.6-24.4-17.8-24.4-4.8,0-11.6,.4-16.4,1v62.4c3.8,.6,9.8,1.2,16.4,1.2,14.2,0,17.8-10.4,17.8-24.6v-15.6Z"/><path class="e" d="M445.59,153.4h-22.4c-2.2,0-4-1.8-4-4v-3.2c-7.8,5.6-15.8,9-27.8,9-17.4,0-34.2-8.4-34.2-34.4v-1.8c0-23.4,15-33.8,49.2-33.8h10.8v-7.2c0-11.4-5.6-13.8-15-13.8-12.8,0-27,.8-33.2,1.4h-1c-2,0-3.6-1-3.6-3.6v-16.2c0-2.2,1.4-3.8,3.8-4.4,7.4-1.8,21.4-4.2,34.6-4.2,28.8,0,46.8,11.6,46.8,40.8v71.4c0,2.2-1.8,4-4,4Zm-27.8-49h-11.4c-14,0-17.6,4.8-17.6,14.6v1.8c0,8.4,4.2,10,12.6,10,6,0,11.6-2,16.4-4.4v-22Z"/></g></g></g></g></svg>