<?xml version="1.0" encoding="UTF-8"?><svg id="Layer_1" xmlns="http://www.w3.org/2000/svg" viewBox="0 0 711 711"><defs><style>.cls-1{opacity:.5;}.cls-2{fill:none;stroke-dasharray:0 0 12.03 12.03;stroke-linecap:round;}.cls-2,.cls-3{stroke:#00beb7;stroke-miterlimit:10;stroke-width:2px;}.cls-3{fill:#00beb7;opacity:.25;}.cls-4{opacity:.6;}</style></defs><g class="cls-1"><g class="cls-4"><rect class="cls-3" x="107.93" y="107.93" width="495.13" height="495.13" rx="25" ry="25" transform="translate(526.23 -117.38) rotate(64.85)"/><path class="cls-2" d="M225.29,664.11L34.89,258.54c-5.87-12.5-.49-27.39,12.01-33.25L452.46,34.89c12.5-5.87,27.39-.49,33.25,12.01l190.4,405.56c5.87,12.5,.49,27.39-12.01,33.25l-405.56,190.4c-12.5,5.87-27.39,.49-33.25-12.01,0,0,5.87,12.5,0,0Z"/></g><g><rect class="cls-3" x="107.93" y="107.93" width="495.13" height="495.13" rx="25" ry="25" transform="translate(358 -147.25) rotate(45.29)"/><path class="cls-2" d="M336.16,689.89L20.93,371.51c-9.71-9.81-9.64-25.64,.18-35.35L339.49,20.93c9.81-9.71,25.64-9.64,35.35,.18l315.23,318.38c9.71,9.81,9.64,25.64-.18,35.35l-318.38,315.23c-9.81,9.71-25.64,9.64-35.35-.18,0,0,9.71,9.81,0,0Z"/></g></g></svg>