<?xml version="1.0" encoding="UTF-8"?><svg xmlns="http://www.w3.org/2000/svg" viewBox="0 0 99 155.2"><defs><style>.d{fill:#00BEB7;}</style></defs><g id="a"/><g id="b"><g id="c"><path class="d" d="M48.8,155.2c-15.4,0-31.2-2.4-42.6-5.2-5.4-1.2-6.2-2.6-6.2-5.8V4C0,1.8,2,0,4.2,0H28.4c2.2,0,4,1.8,4,4V38.6c5.8-.8,12.4-1.4,16.4-1.4,33.8,0,50.2,19.8,50.2,51.2v15.6c0,32.4-17.8,51.2-50.2,51.2Zm17.8-66.8c0-14-3.6-24.4-17.8-24.4-4.8,0-11.6,.4-16.4,1v62.4c3.8,.6,9.8,1.2,16.4,1.2,14.2,0,17.8-10.4,17.8-24.6v-15.6Z"/></g></g></svg>